<mxfile host="65bd71144e">
    <diagram id="JpVn0bxuRuOm0-zpRY7z" name="Page-1">
        <mxGraphModel dx="2343" dy="1366" grid="1" gridSize="10" guides="1" tooltips="1" connect="1" arrows="1" fold="1" page="1" pageScale="1" pageWidth="850" pageHeight="1100" background="none" math="0" shadow="0">
            <root>
                <mxCell id="0"/>
                <mxCell id="1" parent="0"/>
                <mxCell id="3" value="" style="rounded=1;whiteSpace=wrap;html=1;fillColor=none;" parent="1" vertex="1">
                    <mxGeometry x="80" y="80" width="410" height="160" as="geometry"/>
                </mxCell>
                <mxCell id="4" value="" style="outlineConnect=0;dashed=0;verticalLabelPosition=bottom;verticalAlign=top;align=center;html=1;shape=mxgraph.aws3.sensor;fillColor=#5294CF;gradientColor=none;" parent="1" vertex="1">
                    <mxGeometry x="100" y="90" width="76.5" height="90" as="geometry"/>
                </mxCell>
                <mxCell id="5" value="" style="verticalLabelPosition=bottom;sketch=0;html=1;fillColor=#A153A0;strokeColor=#ffffff;verticalAlign=top;align=center;points=[[0,0.5,0],[0.125,0.25,0],[0.25,0,0],[0.5,0,0],[0.75,0,0],[0.875,0.25,0],[1,0.5,0],[0.875,0.75,0],[0.75,1,0],[0.5,1,0],[0.125,0.75,0]];pointerEvents=1;shape=mxgraph.cisco_safe.compositeIcon;bgIcon=mxgraph.cisco_safe.design.blank_device;resIcon=mxgraph.cisco_safe.design.flow_sensor;" parent="1" vertex="1">
                    <mxGeometry x="190" y="112.5" width="50" height="45" as="geometry"/>
                </mxCell>
                <mxCell id="6" value="" style="sketch=0;outlineConnect=0;fontColor=#232F3E;gradientColor=none;fillColor=#3F8624;strokeColor=none;dashed=0;verticalLabelPosition=bottom;verticalAlign=top;align=center;html=1;fontSize=12;fontStyle=0;aspect=fixed;pointerEvents=1;shape=mxgraph.aws4.sensor;" parent="1" vertex="1">
                    <mxGeometry x="254" y="98.5" width="72" height="78" as="geometry"/>
                </mxCell>
                <mxCell id="7" value="" style="verticalLabelPosition=bottom;sketch=0;html=1;fillColor=#6ABD46;strokeColor=#ffffff;verticalAlign=top;align=center;points=[[0.085,0.085,0],[0.915,0.085,0],[0.915,0.915,0],[0.085,0.915,0],[0.25,0,0],[0.5,0,0],[0.75,0,0],[1,0.25,0],[1,0.5,0],[1,0.75,0],[0.75,1,0],[0.5,1,0],[0.25,1,0],[0,0.75,0],[0,0.5,0],[0,0.25,0]];pointerEvents=1;shape=mxgraph.cisco_safe.compositeIcon;bgIcon=mxgraph.cisco_safe.architecture.generic_appliance;resIcon=mxgraph.cisco_safe.architecture.sensor;" parent="1" vertex="1">
                    <mxGeometry x="350" y="112.5" width="50" height="50" as="geometry"/>
                </mxCell>
                <mxCell id="8" value="" style="aspect=fixed;perimeter=ellipsePerimeter;html=1;align=center;shadow=0;dashed=0;fontColor=#4277BB;labelBackgroundColor=#ffffff;fontSize=12;spacingTop=3;image;image=img/lib/ibm/users/sensor.svg;fillColor=none;" parent="1" vertex="1">
                    <mxGeometry x="420" y="107.5" width="60" height="60" as="geometry"/>
                </mxCell>
                <mxCell id="9" value="&lt;font color=&quot;#00cc00&quot;&gt;Water Monitoring Sensors, Power Monitoring Sensors, Vehicle Parking Monitoring Sensors and Environmrent Monitoring Sensors&lt;/font&gt;" style="text;html=1;strokeColor=none;fillColor=none;align=center;verticalAlign=middle;whiteSpace=wrap;rounded=0;" parent="1" vertex="1">
                    <mxGeometry x="100" y="200" width="380" height="30" as="geometry"/>
                </mxCell>
                <mxCell id="10" value="" style="rounded=1;whiteSpace=wrap;html=1;fontColor=#00CC00;fillColor=none;" parent="1" vertex="1">
                    <mxGeometry x="80" y="360" width="410" height="160" as="geometry"/>
                </mxCell>
                <mxCell id="12" value="" style="sketch=0;html=1;aspect=fixed;strokeColor=none;shadow=0;align=center;verticalAlign=top;fillColor=#3B8DF1;shape=mxgraph.gcp2.cloud_computer;fontColor=#00CC00;" parent="1" vertex="1">
                    <mxGeometry x="226" y="380" width="100" height="88" as="geometry"/>
                </mxCell>
                <mxCell id="13" value="Raspberry Pi" style="text;html=1;strokeColor=none;fillColor=none;align=center;verticalAlign=middle;whiteSpace=wrap;rounded=0;fontColor=#00CC00;" parent="1" vertex="1">
                    <mxGeometry x="234" y="480" width="84" height="30" as="geometry"/>
                </mxCell>
                <mxCell id="14" value="" style="rounded=1;whiteSpace=wrap;html=1;fontColor=#00CC00;fillColor=none;" parent="1" vertex="1">
                    <mxGeometry x="80" y="640" width="410" height="160" as="geometry"/>
                </mxCell>
                <mxCell id="15" value="" style="aspect=fixed;perimeter=ellipsePerimeter;html=1;align=center;shadow=0;dashed=0;spacingTop=3;image;image=img/lib/active_directory/internet_cloud.svg;fontColor=#00CC00;fillColor=none;" parent="1" vertex="1">
                    <mxGeometry x="90" y="670" width="50" height="31.5" as="geometry"/>
                </mxCell>
                <mxCell id="16" value="" style="aspect=fixed;perimeter=ellipsePerimeter;html=1;align=center;shadow=0;dashed=0;spacingTop=3;image;image=img/lib/active_directory/internet_globe.svg;fontColor=#00CC00;fillColor=none;" parent="1" vertex="1">
                    <mxGeometry x="150" y="660.75" width="50" height="50" as="geometry"/>
                </mxCell>
                <mxCell id="17" value="" style="outlineConnect=0;dashed=0;verticalLabelPosition=bottom;verticalAlign=top;align=center;html=1;shape=mxgraph.aws3.internet_gateway;fillColor=#F58534;gradientColor=none;fontColor=#00CC00;" parent="1" vertex="1">
                    <mxGeometry x="220" y="660.75" width="69" height="72" as="geometry"/>
                </mxCell>
                <mxCell id="18" value="" style="outlineConnect=0;dashed=0;verticalLabelPosition=bottom;verticalAlign=top;align=center;html=1;shape=mxgraph.aws3.internet_2;fillColor=#D2D3D3;gradientColor=none;fontColor=#00CC00;" parent="1" vertex="1">
                    <mxGeometry x="310" y="670" width="79.5" height="54" as="geometry"/>
                </mxCell>
                <mxCell id="19" value="" style="outlineConnect=0;dashed=0;verticalLabelPosition=bottom;verticalAlign=top;align=center;html=1;shape=mxgraph.aws3.internet_3;fillColor=#D2D3D3;gradientColor=none;fontColor=#00CC00;" parent="1" vertex="1">
                    <mxGeometry x="400" y="669.75" width="79.5" height="54" as="geometry"/>
                </mxCell>
                <mxCell id="20" value="Internet Communication Layer" style="text;html=1;strokeColor=none;fillColor=none;align=center;verticalAlign=middle;whiteSpace=wrap;rounded=0;fontColor=#00CC00;" parent="1" vertex="1">
                    <mxGeometry x="200" y="750" width="200" height="30" as="geometry"/>
                </mxCell>
                <mxCell id="21" value="" style="shape=flexArrow;endArrow=classic;html=1;fontColor=#00CC00;exitX=0.5;exitY=1;exitDx=0;exitDy=0;entryX=0.5;entryY=0;entryDx=0;entryDy=0;fillColor=default;" parent="1" source="3" target="10" edge="1">
                    <mxGeometry width="50" height="50" relative="1" as="geometry">
                        <mxPoint x="30" y="430" as="sourcePoint"/>
                        <mxPoint x="80" y="380" as="targetPoint"/>
                    </mxGeometry>
                </mxCell>
                <mxCell id="22" value="" style="shape=flexArrow;endArrow=classic;html=1;fontColor=#00CC00;exitX=0.5;exitY=1;exitDx=0;exitDy=0;fillColor=default;entryX=0.5;entryY=0;entryDx=0;entryDy=0;" parent="1" source="10" target="14" edge="1">
                    <mxGeometry width="50" height="50" relative="1" as="geometry">
                        <mxPoint x="289.47" y="550.0000000000001" as="sourcePoint"/>
                        <mxPoint x="289" y="620" as="targetPoint"/>
                    </mxGeometry>
                </mxCell>
                <mxCell id="23" value="" style="rounded=1;whiteSpace=wrap;html=1;fontColor=#00CC00;fillColor=none;" parent="1" vertex="1">
                    <mxGeometry x="80" y="920" width="410" height="160" as="geometry"/>
                </mxCell>
                <mxCell id="24" value="" style="ellipse;shape=cloud;whiteSpace=wrap;html=1;fontColor=#00CC00;fillColor=none;" parent="1" vertex="1">
                    <mxGeometry x="80" y="930" width="120" height="80" as="geometry"/>
                </mxCell>
                <mxCell id="25" value="" style="image;html=1;image=img/lib/clip_art/networking/Cloud_Computer_128x128.png;fontColor=#00CC00;fillColor=none;" parent="1" vertex="1">
                    <mxGeometry x="200" y="930" width="80" height="80" as="geometry"/>
                </mxCell>
                <mxCell id="27" value="" style="aspect=fixed;perimeter=ellipsePerimeter;html=1;align=center;shadow=0;dashed=0;spacingTop=3;image;image=img/lib/active_directory/internet_cloud.svg;fontColor=#00CC00;fillColor=none;" parent="1" vertex="1">
                    <mxGeometry x="289" y="954.25" width="50" height="31.5" as="geometry"/>
                </mxCell>
                <mxCell id="28" value="Cloud" style="html=1;strokeColor=none;fillColor=#0079D6;labelPosition=center;verticalLabelPosition=middle;verticalAlign=top;align=center;fontSize=12;outlineConnect=0;spacingTop=-6;fontColor=#FFFFFF;sketch=0;shape=mxgraph.sitemap.cloud;" parent="1" vertex="1">
                    <mxGeometry x="350" y="940" width="120" height="70" as="geometry"/>
                </mxCell>
                <mxCell id="29" value="&lt;font color=&quot;#cc0066&quot;&gt;Azure&lt;/font&gt;" style="text;html=1;strokeColor=none;fillColor=none;align=center;verticalAlign=middle;whiteSpace=wrap;rounded=0;fontColor=#00CC00;" parent="1" vertex="1">
                    <mxGeometry x="108.25" y="955.75" width="60" height="30" as="geometry"/>
                </mxCell>
                <mxCell id="30" value="&lt;font color=&quot;#33ff33&quot;&gt;Application Layer on Cloud (Azure)&lt;/font&gt;" style="text;html=1;strokeColor=none;fillColor=none;align=center;verticalAlign=middle;whiteSpace=wrap;rounded=0;fontColor=#CC0066;" parent="1" vertex="1">
                    <mxGeometry x="200" y="1030" width="190" height="30" as="geometry"/>
                </mxCell>
                <mxCell id="31" value="" style="shape=flexArrow;endArrow=classic;html=1;fontColor=#00CC00;exitX=0.5;exitY=1;exitDx=0;exitDy=0;fillColor=default;entryX=0.5;entryY=0;entryDx=0;entryDy=0;" parent="1" source="14" target="23" edge="1">
                    <mxGeometry width="50" height="50" relative="1" as="geometry">
                        <mxPoint x="284.41" y="820" as="sourcePoint"/>
                        <mxPoint x="284" y="900" as="targetPoint"/>
                    </mxGeometry>
                </mxCell>
                <mxCell id="34" value="" style="rounded=1;whiteSpace=wrap;html=1;fontColor=#33FF33;fillColor=none;" parent="1" vertex="1">
                    <mxGeometry x="80" y="1200" width="410" height="160" as="geometry"/>
                </mxCell>
                <mxCell id="35" value="" style="html=1;verticalLabelPosition=bottom;align=center;labelBackgroundColor=#ffffff;verticalAlign=top;strokeWidth=2;strokeColor=#0080F0;shadow=0;dashed=0;shape=mxgraph.ios7.icons.smartphone;fontColor=#33FF33;fillColor=none;" parent="1" vertex="1">
                    <mxGeometry x="90.25" y="1230" width="18" height="30" as="geometry"/>
                </mxCell>
                <mxCell id="36" value="" style="aspect=fixed;html=1;points=[];align=center;image;fontSize=12;image=img/lib/azure2/general/Mobile.svg;fontColor=#33FF33;fillColor=none;" parent="1" vertex="1">
                    <mxGeometry x="120" y="1220" width="40" height="67" as="geometry"/>
                </mxCell>
                <mxCell id="37" value="" style="fontColor=#0066CC;verticalAlign=top;verticalLabelPosition=bottom;labelPosition=center;align=center;html=1;outlineConnect=0;fillColor=#CCCCCC;strokeColor=#6881B3;gradientColor=none;gradientDirection=north;strokeWidth=2;shape=mxgraph.networks.pc;" parent="1" vertex="1">
                    <mxGeometry x="176.5" y="1220" width="100" height="70" as="geometry"/>
                </mxCell>
                <mxCell id="38" value="" style="points=[];aspect=fixed;html=1;align=center;shadow=0;dashed=0;image;image=img/lib/allied_telesis/computer_and_terminals/Laptop.svg;fontColor=#33FF33;fillColor=none;" parent="1" vertex="1">
                    <mxGeometry x="297" y="1232.2" width="42" height="42.599999999999994" as="geometry"/>
                </mxCell>
                <mxCell id="39" value="" style="aspect=fixed;perimeter=ellipsePerimeter;html=1;align=center;shadow=0;dashed=0;fontColor=#4277BB;labelBackgroundColor=#ffffff;fontSize=12;spacingTop=3;image;image=img/lib/ibm/users/browser.svg;fillColor=none;" parent="1" vertex="1">
                    <mxGeometry x="350" y="1225" width="60" height="60" as="geometry"/>
                </mxCell>
                <mxCell id="40" value="" style="aspect=fixed;perimeter=ellipsePerimeter;html=1;align=center;shadow=0;dashed=0;spacingTop=3;image;image=img/lib/active_directory/internet_globe.svg;fontColor=#33FF33;fillColor=none;" parent="1" vertex="1">
                    <mxGeometry x="420" y="1228.5" width="50" height="50" as="geometry"/>
                </mxCell>
                <mxCell id="41" value="Phone" style="text;html=1;strokeColor=none;fillColor=none;align=center;verticalAlign=middle;whiteSpace=wrap;rounded=0;fontColor=#33FF33;" parent="1" vertex="1">
                    <mxGeometry x="90" y="1300" width="60" height="30" as="geometry"/>
                </mxCell>
                <mxCell id="42" value="PC" style="text;html=1;strokeColor=none;fillColor=none;align=center;verticalAlign=middle;whiteSpace=wrap;rounded=0;fontColor=#33FF33;" parent="1" vertex="1">
                    <mxGeometry x="194" y="1300" width="60" height="30" as="geometry"/>
                </mxCell>
                <mxCell id="43" value="Laptop" style="text;html=1;strokeColor=none;fillColor=none;align=center;verticalAlign=middle;whiteSpace=wrap;rounded=0;fontColor=#33FF33;" parent="1" vertex="1">
                    <mxGeometry x="284" y="1300" width="60" height="30" as="geometry"/>
                </mxCell>
                <mxCell id="46" value="Web" style="text;html=1;strokeColor=none;fillColor=none;align=center;verticalAlign=middle;whiteSpace=wrap;rounded=0;fontColor=#33FF33;" parent="1" vertex="1">
                    <mxGeometry x="390" y="1300" width="60" height="30" as="geometry"/>
                </mxCell>
                <mxCell id="47" value="Presentation Layer" style="text;html=1;strokeColor=none;fillColor=none;align=center;verticalAlign=middle;whiteSpace=wrap;rounded=0;fontColor=#33FF33;" parent="1" vertex="1">
                    <mxGeometry x="227" y="1330" width="126" height="30" as="geometry"/>
                </mxCell>
                <mxCell id="48" value="" style="rounded=1;whiteSpace=wrap;html=1;fontColor=#33FF33;fillColor=none;" parent="1" vertex="1">
                    <mxGeometry x="620" y="100" width="120" height="140" as="geometry"/>
                </mxCell>
                <mxCell id="49" value="" style="outlineConnect=0;dashed=0;verticalLabelPosition=bottom;verticalAlign=top;align=center;html=1;shape=mxgraph.aws3.worker;fillColor=#D9A741;gradientColor=none;fontColor=#33FF33;" parent="1" vertex="1">
                    <mxGeometry x="650" y="120" width="60" height="63" as="geometry"/>
                </mxCell>
                <mxCell id="50" value="Service" style="text;html=1;strokeColor=none;fillColor=none;align=center;verticalAlign=middle;whiteSpace=wrap;rounded=0;fontColor=#33FF33;" parent="1" vertex="1">
                    <mxGeometry x="650" y="200" width="60" height="30" as="geometry"/>
                </mxCell>
                <mxCell id="51" value="" style="rounded=1;whiteSpace=wrap;html=1;fontColor=#33FF33;fillColor=none;" parent="1" vertex="1">
                    <mxGeometry x="620" y="360" width="120" height="160" as="geometry"/>
                </mxCell>
                <mxCell id="52" value="" style="sketch=0;pointerEvents=1;shadow=0;dashed=0;html=1;strokeColor=none;fillColor=#005F4B;labelPosition=center;verticalLabelPosition=bottom;verticalAlign=top;align=center;outlineConnect=0;shape=mxgraph.veeam2.cpu;fontColor=#33FF33;" parent="1" vertex="1">
                    <mxGeometry x="650" y="380" width="60" height="50" as="geometry"/>
                </mxCell>
                <mxCell id="53" value="Data Processing" style="text;html=1;strokeColor=none;fillColor=none;align=center;verticalAlign=middle;whiteSpace=wrap;rounded=0;fontColor=#33FF33;" parent="1" vertex="1">
                    <mxGeometry x="632" y="438" width="96" height="42" as="geometry"/>
                </mxCell>
                <mxCell id="54" value="" style="rounded=1;whiteSpace=wrap;html=1;fontColor=#33FF33;fillColor=none;" parent="1" vertex="1">
                    <mxGeometry x="620" y="641.5" width="120" height="158.5" as="geometry"/>
                </mxCell>
                <mxCell id="55" value="" style="sketch=0;outlineConnect=0;fontColor=#232F3E;gradientColor=none;fillColor=#3F8624;strokeColor=none;dashed=0;verticalLabelPosition=bottom;verticalAlign=top;align=center;html=1;fontSize=12;fontStyle=0;aspect=fixed;pointerEvents=1;shape=mxgraph.aws4.backup_recovery_time_objective;" parent="1" vertex="1">
                    <mxGeometry x="641" y="660.75" width="78" height="75" as="geometry"/>
                </mxCell>
                <mxCell id="56" value="Fault Recovery" style="text;html=1;strokeColor=none;fillColor=none;align=center;verticalAlign=middle;whiteSpace=wrap;rounded=0;fontColor=#33FF33;" parent="1" vertex="1">
                    <mxGeometry x="632" y="750" width="98" height="30" as="geometry"/>
                </mxCell>
                <mxCell id="59" value="" style="rounded=1;whiteSpace=wrap;html=1;fontColor=#33FF33;fillColor=none;" parent="1" vertex="1">
                    <mxGeometry x="620" y="920" width="120" height="160" as="geometry"/>
                </mxCell>
                <mxCell id="61" value="" style="verticalLabelPosition=bottom;html=1;verticalAlign=top;align=center;strokeColor=none;fillColor=#00BEF2;shape=mxgraph.azure.access_control;fontColor=#33FF33;" parent="1" vertex="1">
                    <mxGeometry x="655" y="945" width="50" height="50" as="geometry"/>
                </mxCell>
                <mxCell id="62" value="Load Control" style="text;html=1;strokeColor=none;fillColor=none;align=center;verticalAlign=middle;whiteSpace=wrap;rounded=0;fontColor=#33FF33;" parent="1" vertex="1">
                    <mxGeometry x="632" y="1020" width="98" height="30" as="geometry"/>
                </mxCell>
                <mxCell id="63" value="" style="rounded=1;whiteSpace=wrap;html=1;fontColor=#33FF33;fillColor=none;" parent="1" vertex="1">
                    <mxGeometry x="620" y="1200" width="120" height="140" as="geometry"/>
                </mxCell>
                <mxCell id="64" value="" style="aspect=fixed;perimeter=ellipsePerimeter;html=1;align=center;shadow=0;dashed=0;spacingTop=3;image;image=img/lib/active_directory/security.svg;fontColor=#33FF33;fillColor=none;" parent="1" vertex="1">
                    <mxGeometry x="665.25" y="1220" width="31.5" height="50" as="geometry"/>
                </mxCell>
                <mxCell id="65" value="Security" style="text;html=1;strokeColor=none;fillColor=none;align=center;verticalAlign=middle;whiteSpace=wrap;rounded=0;fontColor=#33FF33;" parent="1" vertex="1">
                    <mxGeometry x="651" y="1300" width="60" height="30" as="geometry"/>
                </mxCell>
                <mxCell id="67" value="" style="rounded=1;whiteSpace=wrap;html=1;fontColor=#33FF33;fillColor=none;" parent="1" vertex="1">
                    <mxGeometry x="600" y="80" width="160" height="1280" as="geometry"/>
                </mxCell>
                <mxCell id="68" value="" style="shape=flexArrow;endArrow=classic;startArrow=classic;html=1;fontColor=#33FF33;fillColor=default;entryX=-0.013;entryY=0.062;entryDx=0;entryDy=0;entryPerimeter=0;exitX=1;exitY=0.5;exitDx=0;exitDy=0;" parent="1" source="3" target="67" edge="1">
                    <mxGeometry width="100" height="100" relative="1" as="geometry">
                        <mxPoint x="400" y="190" as="sourcePoint"/>
                        <mxPoint x="500" y="90" as="targetPoint"/>
                    </mxGeometry>
                </mxCell>
                <mxCell id="69" value="" style="shape=flexArrow;endArrow=classic;startArrow=classic;html=1;fontColor=#33FF33;fillColor=default;entryX=-0.013;entryY=0.281;entryDx=0;entryDy=0;entryPerimeter=0;exitX=1;exitY=0.5;exitDx=0;exitDy=0;" parent="1" source="10" target="67" edge="1">
                    <mxGeometry width="100" height="100" relative="1" as="geometry">
                        <mxPoint x="400" y="520" as="sourcePoint"/>
                        <mxPoint x="500" y="420" as="targetPoint"/>
                    </mxGeometry>
                </mxCell>
                <mxCell id="70" value="" style="shape=flexArrow;endArrow=classic;startArrow=classic;html=1;fontColor=#33FF33;fillColor=default;entryX=0;entryY=0.5;entryDx=0;entryDy=0;" parent="1" source="14" target="67" edge="1">
                    <mxGeometry width="100" height="100" relative="1" as="geometry">
                        <mxPoint x="400" y="800" as="sourcePoint"/>
                        <mxPoint x="500" y="700" as="targetPoint"/>
                    </mxGeometry>
                </mxCell>
                <mxCell id="71" value="" style="shape=flexArrow;endArrow=classic;startArrow=classic;html=1;fontColor=#33FF33;fillColor=default;entryX=-0.013;entryY=0.718;entryDx=0;entryDy=0;entryPerimeter=0;" parent="1" source="23" target="67" edge="1">
                    <mxGeometry width="100" height="100" relative="1" as="geometry">
                        <mxPoint x="400" y="1080" as="sourcePoint"/>
                        <mxPoint x="500" y="980" as="targetPoint"/>
                    </mxGeometry>
                </mxCell>
                <mxCell id="72" value="" style="shape=flexArrow;endArrow=classic;startArrow=classic;html=1;fontColor=#33FF33;fillColor=default;entryX=-0.01;entryY=0.936;entryDx=0;entryDy=0;entryPerimeter=0;exitX=1;exitY=0.5;exitDx=0;exitDy=0;" parent="1" source="34" target="67" edge="1">
                    <mxGeometry width="100" height="100" relative="1" as="geometry">
                        <mxPoint x="400" y="1360" as="sourcePoint"/>
                        <mxPoint x="500" y="1260" as="targetPoint"/>
                    </mxGeometry>
                </mxCell>
            </root>
        </mxGraphModel>
    </diagram>
</mxfile>